# xmcd CD database file
#
# Track frame offsets:
#	187
#	13177
#	26444
#	45467
#	63124
#	76562
#	88719
#	106467
#	119887
#	127934
#	142057
#	159332
#	174259
#
# Disc length: 2463 seconds
#
# Revision: 0
# Processed by: cddbd v1.5.2PL0 Copyright (c) Steve Scherf et al.
# Submitted via: CDex 1.51
#
DISCID=9d099d0d
DTITLE=Helen Merrill - Plaisir D'amour
DYEAR=1993
DGENRE=Jazz
TTITLE0=The Look Of Love
TTITLE1=You Don't Know What Love Is
TTITLE2=Get Out Of Town
TTITLE3=Close Your Eyes
TTITLE4=What Is This Thing Called Love
TTITLE5=All I Do Is Dream Of You
TTITLE6=When I Fall In Love
TTITLE7=Plaisir D'amour
TTITLE8=In The Wee Small HoursOf The Morning
TTITLE9=My Ship
TTITLE10=Charade
TTITLE11=My Funny Valentine
TTITLE12=Softly, As I Leave You
EXTD=YEAR: 1993
EXTT0=
EXTT1=
EXTT2=
EXTT3=
EXTT4=
EXTT5=
EXTT6=
EXTT7=
EXTT8=
EXTT9=
EXTT10=
EXTT11=
EXTT12=
PLAYORDER=
